# xmcd
#
# Track frame offsets: 
#        150
#        16093
#        28824
#        42976
#        52413
#        67016
#        81215
#        97239
#        106413
#        123183
#        134143
#        147949
#        156693
#
# Disc length: 2366 seconds
#
# Revision: 0
# Processed by: cddbd v1.5.2PL0 Copyright (c) Steve Scherf et al.
# Submitted via: ExactAudioCopy v0.99pb3
#
DISCID=c8093c0d
DTITLE=Warner Williams and Jay Summerour - Down 'N' Dirty
DYEAR=2007
DGENRE=Blues
TTITLE0=Black Cat Bone Blues
TTITLE1=My Blue Heaven
TTITLE2=I Got A Woman
TTITLE3=I Can't Help It (If I'm Still In Love With You)
TTITLE4=I'm Gonna Move Way On The Outskits Of Town
TTITLE5=Blueberry Hill
TTITLE6=Ain't Gonna Pick No More Cotton
TTITLE7=Sweet Thang
TTITLE8=Greyhound Bus Blues
TTITLE9=Whiskey Headed Woman
TTITLE10=Georgia On My Mind
TTITLE11=Where'm I Gonna Live When I Get Home
TTITLE12=I Got The Blues So Bad
EXTD=
EXTT0=
EXTT1=
EXTT2=
EXTT3=
EXTT4=
EXTT5=
EXTT6=
EXTT7=
EXTT8=
EXTT9=
EXTT10=
EXTT11=
EXTT12=
PLAYORDER=
